name rise35.5848peak51.9257fall54.8793.mot
datacolumns 19
datarows 35
range 18.70992700000000 18.76658700000000
endheader
time	ground_force1_vx	ground_force1_vy	ground_force1_vz	ground_force1_px	ground_force1_py	ground_force1_pz	ground_force2_vx	ground_force2_vy	ground_force2_vz	ground_force2_px	ground_force2_py	ground_force2_pz	ground_torque1_x	ground_torque1_y	ground_torque1_z	ground_torque2_x	ground_torque2_y	ground_torque2_z	
18.70992700000000	-9.25308600000000	45.69881700000000	-13.88787200000000	0.27361900000000	0.00000000000000	0.10233500000000	-61.56330000000000	782.73344799999995	-40.35502700000000	0.07789300000000	0.00000000000000	-0.06662100000000	0.00000000000000	-7.45158100000000	0.00000000000000	0.00000000000000	-15.50626300000000	0.00000000000000	
18.71159400000000	-10.00203700000000	52.35793000000000	-15.35419400000000	0.27795600000000	0.00000000000000	0.10331700000000	-61.75872700000000	780.26130599999999	-39.86946200000000	0.07737600000000	0.00000000000000	-0.06654200000000	0.00000000000000	-8.34038600000000	0.00000000000000	0.00000000000000	-15.40545900000000	0.00000000000000	
18.71325300000000	-10.58925700000000	58.98310500000000	-16.66521300000000	0.28194900000000	0.00000000000000	0.10422400000000	-61.96279800000000	777.68361600000003	-39.37261900000000	0.07686200000000	0.00000000000000	-0.06646200000000	0.00000000000000	-9.16305500000000	0.00000000000000	0.00000000000000	-15.30646300000000	0.00000000000000	
18.71492500000000	-11.00013300000000	65.50941899999999	-17.79938000000000	0.28565200000000	0.00000000000000	0.10506600000000	-62.17582100000000	774.99798799999996	-38.86457100000000	0.07634900000000	0.00000000000000	-0.06637900000000	0.00000000000000	-9.90622100000000	0.00000000000000	0.00000000000000	-15.20932400000000	0.00000000000000	
18.71659200000000	-11.22862000000000	71.89628300000000	-18.74586100000000	0.28911000000000	0.00000000000000	0.10585000000000	-62.39803200000000	772.20196299999998	-38.34538900000000	0.07583900000000	0.00000000000000	-0.06629400000000	0.00000000000000	-10.56216100000000	0.00000000000000	0.00000000000000	-15.11407600000000	0.00000000000000	
18.71825700000000	-11.27651200000000	78.12702700000000	-19.50382200000000	0.29235900000000	0.00000000000000	0.10658400000000	-62.62959200000000	769.29301399999997	-37.81514300000000	0.07533300000000	0.00000000000000	-0.06620700000000	0.00000000000000	-11.12854900000000	0.00000000000000	0.00000000000000	-15.02073800000000	0.00000000000000	
18.71992100000000	-11.15220300000000	84.20659100000000	-20.08101100000000	0.29542900000000	0.00000000000000	0.10727200000000	-62.87058100000000	766.26856099999998	-37.27390200000000	0.07483000000000	0.00000000000000	-0.06611700000000	0.00000000000000	-11.60781500000000	0.00000000000000	0.00000000000000	-14.92931400000000	0.00000000000000	
18.72159100000000	-10.86911800000000	90.15783000000000	-20.49188300000000	0.29834300000000	0.00000000000000	0.10792000000000	-63.12100100000000	763.12596699999995	-36.72173900000000	0.07433200000000	0.00000000000000	-0.06602500000000	0.00000000000000	-12.00621800000000	0.00000000000000	0.00000000000000	-14.83979100000000	0.00000000000000	
18.72326400000000	-10.44400800000000	96.01699200000000	-20.75549700000000	0.30112200000000	0.00000000000000	0.10853200000000	-63.38076700000000	759.86255300000005	-36.15872600000000	0.07384000000000	0.00000000000000	-0.06593000000000	0.00000000000000	-12.33276200000000	0.00000000000000	0.00000000000000	-14.75214400000000	0.00000000000000	
18.72492500000000	-9.89527500000000	101.82888300000000	-20.89340600000000	0.30378300000000	0.00000000000000	0.10911000000000	-63.64971100000000	756.47560499999997	-35.58493800000000	0.07335300000000	0.00000000000000	-0.06583200000000	0.00000000000000	-12.59807700000000	0.00000000000000	0.00000000000000	-14.66632800000000	0.00000000000000	
18.72659200000000	-9.24144900000000	107.64216399999999	-20.92770400000000	0.30634000000000	0.00000000000000	0.10965800000000	-63.92757300000000	752.96238200000005	-35.00045700000000	0.07287400000000	0.00000000000000	-0.06573100000000	0.00000000000000	-12.81335600000000	0.00000000000000	0.00000000000000	-14.58228700000000	0.00000000000000	
18.72825900000000	-8.49992500000000	113.50513700000000	-20.87936300000000	0.30880300000000	0.00000000000000	0.11017900000000	-64.21400500000000	749.32012399999996	-34.40536700000000	0.07240200000000	0.00000000000000	-0.06562700000000	0.00000000000000	-12.98943200000000	0.00000000000000	0.00000000000000	-14.49994700000000	0.00000000000000	
18.72992400000000	-7.68600300000000	119.46226200000000	-20.76694700000000	0.31118400000000	0.00000000000000	0.11067400000000	-64.50856700000000	745.54606500000000	-33.79975900000000	0.07193800000000	0.00000000000000	-0.06552000000000	0.00000000000000	-13.13602700000000	0.00000000000000	0.00000000000000	-14.41922200000000	0.00000000000000	
18.73159000000000	-6.81226000000000	125.55155499999999	-20.60572600000000	0.31348800000000	0.00000000000000	0.11114600000000	-64.81072600000000	741.63744099999997	-33.18373500000000	0.07148400000000	0.00000000000000	-0.06540900000000	0.00000000000000	-13.26122900000000	0.00000000000000	0.00000000000000	-14.34000900000000	0.00000000000000	
18.73325500000000	-5.88824000000000	131.80289700000000	-20.40719400000000	0.31572300000000	0.00000000000000	0.11159600000000	-65.11985300000001	737.59150499999998	-32.55740400000000	0.07104000000000	0.00000000000000	-0.06529500000000	0.00000000000000	-13.37116600000000	0.00000000000000	0.00000000000000	-14.26219200000000	0.00000000000000	
18.73492000000000	-4.92043000000000	138.23722799999999	-20.17895500000000	0.31789300000000	0.00000000000000	0.11202700000000	-65.43522600000000	733.40553499999999	-31.92088700000000	0.07060600000000	0.00000000000000	-0.06517700000000	0.00000000000000	-13.46989800000000	0.00000000000000	0.00000000000000	-14.18564100000000	0.00000000000000	
18.73658800000000	-3.91247200000000	144.86652599999999	-19.92491900000000	0.32000300000000	0.00000000000000	0.11243900000000	-65.75603000000000	729.07684800000004	-31.27431700000000	0.07018300000000	0.00000000000000	-0.06505600000000	0.00000000000000	-13.55946900000000	0.00000000000000	0.00000000000000	-14.11021400000000	0.00000000000000	
18.73825600000000	-2.86555300000000	151.69442000000001	-19.64573700000000	0.32205600000000	0.00000000000000	0.11283300000000	-66.08135200000000	724.60281599999996	-30.61784400000000	0.06977200000000	0.00000000000000	-0.06493000000000	0.00000000000000	-13.64011100000000	0.00000000000000	0.00000000000000	-14.03575500000000	0.00000000000000	
18.73992000000000	-1.77891400000000	158.71729099999999	-19.33939900000000	0.32405400000000	0.00000000000000	0.11321100000000	-66.41018699999999	719.98087599999997	-29.95163100000000	0.06937400000000	0.00000000000000	-0.06480100000000	0.00000000000000	-13.71053900000000	0.00000000000000	0.00000000000000	-13.96209500000000	0.00000000000000	
18.74159000000000	-0.65040600000000	165.92566600000001	-19.00191800000000	0.32599900000000	0.00000000000000	0.11357400000000	-66.74143599999999	715.20854999999995	-29.27586100000000	0.06898800000000	0.00000000000000	-0.06466700000000	0.00000000000000	-13.76831000000000	0.00000000000000	0.00000000000000	-13.88905800000000	0.00000000000000	
18.74325600000000	0.52294000000000	173.30576800000000	-18.62804100000000	0.32789200000000	0.00000000000000	0.11392200000000	-67.07390800000000	710.28345500000000	-28.59073300000000	0.06861600000000	0.00000000000000	-0.06452900000000	0.00000000000000	-13.81020100000000	0.00000000000000	0.00000000000000	-13.81645100000000	0.00000000000000	
18.74492100000000	1.74438600000000	180.84106399999999	-18.21191700000000	0.32973300000000	0.00000000000000	0.11425700000000	-67.40632300000000	705.20332800000006	-27.89647000000000	0.06825700000000	0.00000000000000	-0.06438600000000	0.00000000000000	-13.83258000000000	0.00000000000000	0.00000000000000	-13.74407700000000	0.00000000000000	
18.74659400000000	3.01703100000000	188.51370800000001	-17.74769700000000	0.33152300000000	0.00000000000000	0.11457900000000	-67.73731100000001	699.96603200000004	-27.19331500000000	0.06791300000000	0.00000000000000	-0.06424000000000	0.00000000000000	-13.83174000000000	0.00000000000000	0.00000000000000	-13.67172600000000	0.00000000000000	
18.74826000000000	4.34343900000000	196.30578299999999	-17.23001700000000	0.33326200000000	0.00000000000000	0.11488800000000	-68.06541799999999	694.56958399999996	-26.48153400000000	0.06758300000000	0.00000000000000	-0.06408900000000	0.00000000000000	-13.80418600000000	0.00000000000000	0.00000000000000	-13.59918100000000	0.00000000000000	
18.74992000000000	5.72538000000000	204.20029600000001	-16.65437000000000	0.33494900000000	0.00000000000000	0.11518700000000	-68.38910799999999	689.01216699999998	-25.76141600000000	0.06726700000000	0.00000000000000	-0.06393300000000	0.00000000000000	-13.74684500000000	0.00000000000000	0.00000000000000	-13.52621800000000	0.00000000000000	
18.75159000000000	7.16366200000000	212.18190500000000	-16.01734100000000	0.33658300000000	0.00000000000000	0.11547400000000	-68.70676500000000	683.29214800000000	-25.03327800000000	0.06696600000000	0.00000000000000	-0.06377300000000	0.00000000000000	-13.65722600000000	0.00000000000000	0.00000000000000	-13.45260700000000	0.00000000000000	
18.75325700000000	8.65805900000000	220.23736800000000	-15.31673400000000	0.33816400000000	0.00000000000000	0.11575000000000	-69.01669800000001	677.40809800000000	-24.29746000000000	0.06667900000000	0.00000000000000	-0.06360800000000	0.00000000000000	-13.53349900000000	0.00000000000000	0.00000000000000	-13.37811100000000	0.00000000000000	
18.75492300000000	10.20732500000000	228.35574399999999	-14.55159100000000	0.33969000000000	0.00000000000000	0.11601700000000	-69.31714599999999	671.35880399999996	-23.55433200000000	0.06640700000000	0.00000000000000	-0.06343900000000	0.00000000000000	-13.37452500000000	0.00000000000000	0.00000000000000	-13.30248900000000	0.00000000000000	
18.75659600000000	11.80926300000000	236.52838000000000	-13.72211900000000	0.34116000000000	0.00000000000000	0.11627400000000	-69.60628000000000	665.14328999999998	-22.80429000000000	0.06614900000000	0.00000000000000	-0.06326400000000	0.00000000000000	-13.17983000000000	0.00000000000000	0.00000000000000	-13.22549800000000	0.00000000000000	
18.75825500000000	13.46085600000000	244.74872700000000	-12.82956800000000	0.34257400000000	0.00000000000000	0.11652200000000	-69.88221299999999	658.76082599999995	-22.04775900000000	0.06590500000000	0.00000000000000	-0.06308600000000	0.00000000000000	-12.94954600000000	0.00000000000000	0.00000000000000	-13.14689200000000	0.00000000000000	
18.75992400000000	15.15840800000000	253.01203599999999	-11.87605200000000	0.34392800000000	0.00000000000000	0.11676100000000	-70.14300200000000	652.21094100000005	-21.28519600000000	0.06567500000000	0.00000000000000	-0.06290200000000	0.00000000000000	-12.68432300000000	0.00000000000000	0.00000000000000	-13.06642300000000	0.00000000000000	
18.76159500000000	16.89771900000000	261.31497700000000	-10.86436000000000	0.34522200000000	0.00000000000000	0.11699100000000	-70.38665300000000	645.49343499999998	-20.51708800000000	0.06545800000000	0.00000000000000	-0.06271400000000	0.00000000000000	-12.38522500000000	0.00000000000000	0.00000000000000	-12.98384400000000	0.00000000000000	
18.76325400000000	18.67423700000000	269.65523600000000	-9.79776300000000	0.34645500000000	0.00000000000000	0.11721300000000	-70.61113400000001	638.60838400000000	-19.74395400000000	0.06525300000000	0.00000000000000	-0.06252200000000	0.00000000000000	-12.05362900000000	0.00000000000000	0.00000000000000	-12.89891100000000	0.00000000000000	
18.76491900000000	20.48321800000000	278.03111899999999	-8.67983100000000	0.34762400000000	0.00000000000000	0.11742800000000	-70.81437600000000	631.55614600000001	-18.96634800000000	0.06506100000000	0.00000000000000	-0.06232500000000	0.00000000000000	-11.69111800000000	0.00000000000000	0.00000000000000	-12.81137900000000	0.00000000000000	
18.76658700000000	22.31984800000000	286.44118400000002	-7.51427000000000	0.34872900000000	0.00000000000000	0.11763400000000	-70.99428600000000	624.33736599999997	-18.18485600000000	0.06487900000000	0.00000000000000	-0.06212300000000	0.00000000000000	-11.29939400000000	0.00000000000000	0.00000000000000	-12.72101100000000	0.00000000000000	
